<?xml version="1.0" encoding="utf-8"?>
<!-- Generator: Adobe Illustrator 21.1.0, SVG Export Plug-In . SVG Version: 6.00 Build 0)  -->
<svg version="1.1" id="Слой_1" xmlns="http://www.w3.org/2000/svg" xmlns:xlink="http://www.w3.org/1999/xlink" x="0px" y="0px"
	 viewBox="0 0 150 150" style="enable-background:new 0 0 150 150;" xml:space="preserve">
<style type="text/css">
	.st0{font-family:'MyriadPro-Regular';}
	.st1{font-size:27px;}
	.st2{fill:#FFFFFF;stroke:#000000;stroke-width:2;stroke-miterlimit:10;}
</style>
<text transform="matrix(1 0 0 1 22.1978 112)" class="st0 st1">Контакты</text>
<path class="st2" d="M32.5,26.5l16-18l13,20l-9,9c0,0,13,37,35,34l8-7l20,12l-18,15C97.5,91.5,47.5,81.5,32.5,26.5z"/>
<path class="st2" d="M73.5,32.5c0,0,18-2,18,19l7-1c0,0-1-26-25-25V32.5z"/>
<path class="st2" d="M74.5,15.5c0,0,32-2,34,33l7-1c0,0,0-38-40-39L74.5,15.5z"/>
</svg>
