<?xml version="1.0" encoding="utf-8"?>
<!-- Generator: Adobe Illustrator 21.1.0, SVG Export Plug-In . SVG Version: 6.00 Build 0)  -->
<svg version="1.1" id="Слой_1" xmlns="http://www.w3.org/2000/svg" xmlns:xlink="http://www.w3.org/1999/xlink" x="0px" y="0px"
	 viewBox="0 0 150 150" style="enable-background:new 0 0 150 150;" xml:space="preserve">
<style type="text/css">
	.st0{fill:#FFFFFF;}
	.st1{fill:none;stroke:#000000;stroke-width:2;stroke-miterlimit:10;}
	.st2{font-family:'MyriadPro-Regular';}
	.st3{font-size:27px;}
</style>
<g>
	<path class="st0" d="M75.5,93.5c-24.3,0-44-19.7-44-44s19.7-44,44-44s44,19.7,44,44S99.8,93.5,75.5,93.5z"/>
	<path d="M75.5,6c24,0,43.5,19.5,43.5,43.5S99.5,93,75.5,93S32,73.5,32,49.5S51.5,6,75.5,6 M75.5,5C50.9,5,31,24.9,31,49.5
		S50.9,94,75.5,94S120,74.1,120,49.5S100.1,5,75.5,5L75.5,5z"/>
</g>
<g>
	<line class="st1" x1="75.5" y1="16.5" x2="75.5" y2="81.5"/>
</g>
<g>
	<line class="st1" x1="42.5" y1="49.5" x2="107.5" y2="49.5"/>
</g>
<text transform="matrix(1 0 0 1 29.1299 115.416)" class="st2 st3">Главная</text>
</svg>
